<?xml version="1.0" encoding="utf-8"?>
<!-- Generator: Adobe Illustrator 15.0.0, SVG Export Plug-In . SVG Version: 6.00 Build 0)  -->
<!DOCTYPE svg PUBLIC "-//W3C//DTD SVG 1.1//EN" "http://www.w3.org/Graphics/SVG/1.1/DTD/svg11.dtd">
<svg version="1.1" id="Ebene_1" xmlns="http://www.w3.org/2000/svg" xmlns:xlink="http://www.w3.org/1999/xlink" x="0px" y="0px"
	 width="64px" height="64px" viewBox="0 0 64 64" enable-background="new 0 0 64 64" xml:space="preserve">
<g id="Ebene_1_1_" display="none">
	<g id="pJ5z4n_1_" display="inline">
		<g>
			<path d="M8.171,21.663c0,6.79,0,13.579,0,20.368c-6.514,3.158-3.015-17.422-3.395-20.368C4.891,21.047,7.04,21.663,8.171,21.663z
				"/>
			<path d="M18.219,22.188c0.594-0.672,3.559-0.784,3.766,0.328c0.734,3.953-4.803,3.632-5.327,7.634c9.618,0,19.236,0,28.854,0
				c4.748-2.183-4.152-3.462-4.121-7.649c0.004-0.72,3.137-1.397,4.121-0.837c3.588,2.043,5.371,6.25,8.487,9.337
				c-0.718,6.438-4.118,7.81-8.487,11.031c-0.91,0.672-3.912-0.367-3.902-1.5c0.031-4.048,5.076-2.984,5.601-6.987
				c-9.619,0-19.237,0-28.854,0c-4.747,2.184,7.131,4.631,2.714,7.645c-0.935,0.638-1.553,0.547-2.85-0.547
				c-3.516-2.345-6.243-5.244-8.351-8.793C11.625,27.38,15.04,25.784,18.219,22.188z"/>
			<path d="M55.695,21.663c1.974-0.276,3.021,0.375,3.396,1.697c-1.709,5.646,3.752,18.464-3.396,18.671
				C55.695,35.241,55.695,28.452,55.695,21.663z"/>
		</g>
	</g>
</g>
<g id="Ebene_2">
	<g>
		
			<line fill="none" stroke="#4C4C4C" stroke-width="7" stroke-linecap="round" stroke-miterlimit="10" x1="12.14" y1="31.487" x2="51.859" y2="31.487"/>
		
			<line fill="none" stroke="#4C4C4C" stroke-width="7" stroke-linecap="round" stroke-miterlimit="10" x1="51.988" y1="31.504" x2="42.652" y2="22.168"/>
		
			<line fill="none" stroke="#4C4C4C" stroke-width="7" stroke-linecap="round" stroke-miterlimit="10" x1="51.988" y1="31.504" x2="42.882" y2="40.609"/>
		
			<line fill="none" stroke="#4C4C4C" stroke-width="7" stroke-linecap="round" stroke-miterlimit="10" x1="12.012" y1="31.504" x2="21.25" y2="22.266"/>
		
			<line fill="none" stroke="#4C4C4C" stroke-width="7" stroke-linecap="round" stroke-miterlimit="10" x1="12.012" y1="31.504" x2="21.185" y2="40.677"/>
	</g>
	
		<line fill="none" stroke="#4C4C4C" stroke-width="7" stroke-linecap="round" stroke-miterlimit="10" x1="60.5" y1="22.168" x2="60.5" y2="40.609"/>
	
		<line fill="none" stroke="#4C4C4C" stroke-width="7" stroke-linecap="round" stroke-miterlimit="10" x1="3.5" y1="22.168" x2="3.5" y2="42"/>
</g>
</svg>
